<svg xmlns="http://www.w3.org/2000/svg" version="1.1" viewBox="0.17 0.42 1999.66 745.58"><path d="M 202 9.980 C 133.609 16.770, 73.894 52.280, 35.184 109.180 C 33.433 111.754, 32 114.422, 32 115.108 C 32 115.794, 35.138 121.381, 38.973 127.525 C 42.808 133.669, 46.202 139.364, 46.516 140.181 C 46.991 141.419, 44.664 141.882, 32.560 142.961 C 24.570 143.673, 17.611 144.764, 17.094 145.387 C 16.577 146.009, 14.757 150.339, 13.048 155.009 C -12.751 225.520, 0.819 306.208, 48.449 365.500 C 107.859 439.456, 208.105 467.455, 298.500 435.341 C 366.338 411.239, 419.820 353.203, 437.501 284.500 C 449.011 239.776, 446.487 195.959, 429.827 151.284 C 427.595 145.300, 428.759 145.742, 408.220 143.082 L 395.939 141.492 403.970 128.672 C 408.386 121.621, 412 115.520, 412 115.113 C 412 113.938, 400.326 97.138, 394.460 89.870 C 387.047 80.688, 371.651 65.542, 361.958 57.897 C 322.798 27.014, 277.155 10.524, 228 9.501 C 218.375 9.300, 206.675 9.516, 202 9.980 M 199.500 24.603 C 186.169 26.532, 176.086 28.453, 168 30.604 C 123.829 42.354, 84.759 68.177, 56.735 104.144 C 53.031 108.898, 50 113.186, 50 113.673 C 50 114.160, 53.938 115.097, 58.750 115.756 C 76.602 118.201, 90.454 122.679, 110.500 132.487 C 134.480 144.221, 148.812 154.615, 169.012 174.922 C 187.262 193.269, 202.788 214.653, 216.442 240.250 C 219.596 246.162, 222.345 251, 222.550 251 C 222.755 251, 225.644 245.663, 228.970 239.139 C 253.860 190.318, 292.847 150.906, 335.460 131.487 C 352.085 123.910, 373.715 117.653, 387.642 116.391 C 391.689 116.024, 395 115.405, 395 115.015 C 395 112.923, 380.137 94.992, 370.073 84.943 C 339.251 54.166, 302.389 35.041, 258.120 26.860 C 250.189 25.394, 241.803 24.805, 225 24.533 C 212.625 24.332, 201.150 24.364, 199.500 24.603 M 30.741 157.655 C 27.213 158.268, 25.851 160.939, 22.089 174.624 C 17.374 191.775, 15.868 202.164, 15.286 221.553 C 14.663 242.303, 16.295 257.899, 21.082 276.938 C 39.365 349.660, 95.345 406.403, 169 426.872 C 181.116 430.239, 199.511 433.012, 214 433.655 C 272.493 436.253, 331.015 412.817, 372.035 370.367 C 424.521 316.052, 443.332 237.221, 420.325 168 L 417.500 159.500 413.500 158.808 C 411.300 158.427, 403.033 158.089, 395.128 158.058 C 339.597 157.835, 291.012 181.689, 258.479 225.150 C 243.724 244.861, 234.941 261.766, 224.328 290.884 L 222.366 296.269 219.565 288.384 C 197.236 225.528, 158.239 183.786, 105.339 166.117 C 86.246 159.740, 74.497 157.818, 52.500 157.473 C 42.050 157.309, 32.258 157.391, 30.741 157.655 M 1414.449 238.500 C 1414.449 257.200, 1414.584 264.709, 1414.749 255.186 C 1414.913 245.663, 1414.913 230.363, 1414.748 221.186 C 1414.583 212.009, 1414.449 219.800, 1414.449 238.500 M 1174.378 261 C 1174.378 267.325, 1174.541 269.913, 1174.739 266.750 C 1174.937 263.587, 1174.937 258.413, 1174.739 255.250 C 1174.541 252.088, 1174.378 254.675, 1174.378 261 M 1174.374 283.500 C 1174.376 289.550, 1174.541 291.896, 1174.740 288.713 C 1174.939 285.531, 1174.937 280.581, 1174.736 277.713 C 1174.535 274.846, 1174.372 277.450, 1174.374 283.500 M 1543.450 589.500 C 1543.451 608.750, 1543.585 616.483, 1543.749 606.685 C 1543.913 596.888, 1543.912 581.138, 1543.748 571.685 C 1543.584 562.233, 1543.450 570.250, 1543.450 589.500 M 912.402 573 C 912.402 581.525, 912.556 585.013, 912.743 580.750 C 912.931 576.487, 912.931 569.513, 912.743 565.250 C 912.556 560.987, 912.402 564.475, 912.402 573 M 754.378 574 C 754.378 580.325, 754.541 582.913, 754.739 579.750 C 754.937 576.587, 754.937 571.413, 754.739 568.250 C 754.541 565.087, 754.378 567.675, 754.378 574 M 160 577.073 C 99.702 580.086, 27.543 588.382, 12.749 594.003 C 1.662 598.216, -0.802 604.366, 5.600 611.846 C 10.411 617.466, 12.936 618.621, 27.818 622.008 C 47.563 626.502, 72.364 628.953, 129 632.008 C 163.906 633.891, 279.385 632.709, 327.364 629.977 C 350.093 628.682, 378.131 625.714, 398.151 622.483 C 427.515 617.743, 437.440 614.823, 443.315 609.197 C 445.710 606.904, 446.032 605.986, 445.479 603.036 C 444.425 597.420, 442.215 594.150, 438.028 592.014 C 425.591 585.669, 376.173 580.097, 305.014 577.017 C 278.404 575.865, 183.453 575.902, 160 577.073 M 182.500 591.593 C 178.650 591.778, 164.925 592.420, 152 593.021 C 122.845 594.375, 87.194 597.258, 59 600.542 C 32.273 603.655, 31.806 603.747, 32.202 605.842 C 32.587 607.876, 44.816 610.086, 68.500 612.402 C 106.641 616.131, 209.740 618.420, 275.500 616.998 C 330.670 615.805, 358.181 613.823, 393.500 608.498 C 416.578 605.019, 420.176 604.151, 419.792 602.157 C 419.553 600.915, 417.511 600.204, 411.600 599.303 C 399.789 597.503, 361.121 594.140, 338.500 592.944 C 319.499 591.940, 197.328 590.882, 182.500 591.593 M 1365.250 625.745 C 1370.063 625.928, 1377.938 625.928, 1382.750 625.745 C 1387.563 625.561, 1383.625 625.411, 1374 625.411 C 1364.375 625.411, 1360.438 625.561, 1365.250 625.745 M 1649.750 673.737 L 1642 674.084 1642.002 682.292 C 1642.004 686.806, 1642.300 700.964, 1642.662 713.752 L 1643.320 737.005 1671.910 736.428 C 1702.788 735.805, 1711.225 734.753, 1721.277 730.276 C 1727.224 727.627, 1732.370 722.773, 1734.144 718.139 C 1736.221 712.715, 1737.226 704.965, 1736.552 699.572 C 1735.951 694.756, 1735.197 693.283, 1730.974 688.662 C 1725.263 682.413, 1717.042 678.051, 1706 675.410 C 1700.164 674.015, 1693.953 673.592, 1678 673.503 C 1666.725 673.441, 1654.013 673.546, 1649.750 673.737 M 1501.399 677.163 C 1500.597 678.461, 1500.687 694.244, 1501.653 721.909 L 1502.297 740.319 1537.344 739.663 C 1556.620 739.303, 1572.715 738.669, 1573.111 738.254 C 1573.506 737.839, 1574.145 734.913, 1574.530 731.750 L 1575.230 726 1552.615 726 L 1530 726 1530 720.500 C 1530 715.977, 1530.311 714.977, 1531.750 714.872 C 1532.713 714.802, 1541.825 714.465, 1552 714.122 L 1570.500 713.500 1570.820 709.595 C 1570.995 707.448, 1570.874 704.635, 1570.551 703.345 L 1569.962 701 1549.981 701 L 1530 701 1530 696.107 C 1530 692.568, 1530.438 691.046, 1531.582 690.607 C 1532.452 690.273, 1538.909 690, 1545.931 690 C 1552.953 690, 1562.165 689.707, 1566.402 689.349 L 1574.106 688.698 1573.418 683.099 C 1573.039 680.019, 1572.228 677.169, 1571.615 676.765 C 1569.641 675.464, 1502.213 675.846, 1501.399 677.163 M 1354.702 678.721 C 1351.974 679.132, 1351.912 679.282, 1352.202 684.821 L 1352.500 690.500 1358.377 690.142 C 1361.610 689.946, 1368.022 690.099, 1372.627 690.482 L 1381 691.180 1381 698.429 C 1381 702.417, 1381.297 713.882, 1381.660 723.908 C 1382.306 741.745, 1382.365 742.125, 1384.410 741.614 C 1385.560 741.327, 1391.338 740.780, 1397.250 740.398 L 1408 739.705 1408.074 720.103 C 1408.115 709.321, 1408.452 698.475, 1408.824 696 L 1409.500 691.500 1422.992 691 L 1436.485 690.500 1437.124 687.500 C 1437.476 685.850, 1437.817 683.038, 1437.882 681.250 L 1438 678 1397.750 678.150 C 1375.612 678.232, 1356.241 678.489, 1354.702 678.721 M 1260.772 709.750 C 1261.019 726.663, 1261.532 740.838, 1261.913 741.252 C 1262.293 741.666, 1268.093 741.709, 1274.802 741.349 L 1287 740.693 1287 709.846 L 1287 679 1273.661 679 L 1260.323 679 1260.772 709.750 M 978.455 683.073 C 978.090 683.663, 978.124 697.900, 978.529 714.711 L 979.267 745.276 987.384 744.644 C 991.848 744.296, 997.638 744.009, 1000.250 744.006 L 1005 744 1005 726.658 C 1005 717.120, 1004.705 703.170, 1004.345 695.658 L 1003.690 682 991.404 682 C 983.734 682, 978.869 682.403, 978.455 683.073 M 1075.706 682.750 C 1075.479 683.163, 1075.565 697, 1075.897 713.500 L 1076.500 743.500 1088 743.500 L 1099.500 743.500 1100.028 720 C 1100.318 707.075, 1100.656 697.030, 1100.778 697.678 C 1100.900 698.326, 1105.288 708.948, 1110.528 721.283 L 1120.057 743.710 1131.679 744.405 C 1138.071 744.787, 1143.614 744.740, 1143.998 744.300 C 1144.382 743.860, 1147.059 737.650, 1149.948 730.500 C 1152.836 723.350, 1157.292 713.013, 1159.850 707.529 L 1164.500 697.558 1165.010 720.706 C 1165.291 733.437, 1165.790 744.123, 1166.120 744.453 C 1166.449 744.783, 1171.732 744.748, 1177.860 744.376 L 1189 743.699 1189 713.409 C 1189 693.443, 1188.644 682.898, 1187.956 682.473 C 1187.382 682.118, 1177.972 682.152, 1167.045 682.548 L 1147.178 683.268 1142.597 694.884 C 1140.078 701.273, 1136.940 709.650, 1135.623 713.500 C 1133.393 720.019, 1133.159 720.328, 1132.210 718 C 1131.649 716.625, 1128.739 709.110, 1125.742 701.299 C 1122.746 693.489, 1119.543 685.951, 1118.624 684.549 L 1116.954 682 1096.536 682 C 1085.306 682, 1075.932 682.337, 1075.706 682.750 M 852 683.914 L 843.500 684.500 843.236 715.250 L 842.971 746 877.486 746 L 912 746 912 740.122 C 912 736.499, 911.498 733.828, 910.691 733.158 C 909.910 732.511, 901.332 731.806, 889.441 731.412 C 878.473 731.050, 869.279 730.549, 869.008 730.301 C 868.738 730.053, 868.513 719.421, 868.508 706.675 L 868.500 683.500 864.500 683.414 C 862.300 683.367, 856.675 683.592, 852 683.914 M 1669.004 694.750 C 1669.006 697.913, 1669.301 706.237, 1669.658 713.250 L 1670.309 726 1674.904 725.992 C 1687.031 725.973, 1699.874 721.957, 1704.892 716.615 C 1708.088 713.213, 1708.846 703.863, 1706.313 699.071 C 1703.284 693.342, 1700.647 692.141, 1687.500 690.507 C 1680.900 689.687, 1674.037 689.012, 1672.250 689.008 L 1669 689 1669.004 694.750" stroke="none" fill="#000000" fill-rule="evenodd"/><path d="M 193.536 26.146 C 173.449 28.720, 148.152 36.435, 129.796 45.586 C 107.330 56.785, 92.214 67.663, 74.423 85.436 C 64.224 95.624, 51 111.312, 51 113.224 C 51 113.524, 54.535 114.287, 58.857 114.919 C 63.178 115.551, 70.815 117.165, 75.829 118.507 C 134.272 134.148, 183.094 176.167, 216.788 239.825 L 222.253 250.150 228.229 238.899 C 255.173 188.171, 289.153 153.464, 332.500 132.399 C 350.696 123.557, 366.708 118.707, 388.880 115.321 L 394.261 114.500 387.978 106.039 C 380.137 95.480, 365.013 79.792, 354.500 71.314 C 324.119 46.813, 288.676 31.593, 250 26.438 C 238.328 24.883, 204.748 24.709, 193.536 26.146 M 39 158.011 C 33.775 158.293, 28.945 158.877, 28.267 159.310 C 26.721 160.297, 22.670 173.479, 19.211 188.782 C 16.701 199.881, 16.561 201.927, 16.553 227.500 C 16.544 256.612, 17.253 262.338, 23.566 284.102 C 42.233 348.458, 92.572 400.841, 156.231 422.153 C 199.716 436.711, 244.516 436.737, 288.500 422.229 C 341.307 404.810, 385.712 365.632, 409.685 315.308 C 428.976 274.812, 434.221 226.610, 424.043 183.364 C 421.676 173.308, 418.132 161.916, 416.977 160.651 C 415.466 158.996, 395.577 158.128, 382 159.124 C 322.354 163.500, 274.585 194.304, 244.045 248.085 C 237.479 259.648, 229.849 276.764, 225.417 289.871 C 223.280 296.195, 222.402 297.785, 221.830 296.371 C 221.413 295.342, 219.432 290, 217.426 284.500 C 186.752 200.380, 120.777 153.610, 39 158.011 M 207.500 591.622 C 164.484 592.404, 116.865 595.261, 75 599.572 C 22.366 604.991, 20.744 605.946, 56.500 610.457 C 89.127 614.573, 144.867 616.507, 229.500 616.460 C 287.360 616.428, 306.508 616.076, 327 614.670 C 369.869 611.729, 419 605.134, 419 602.321 C 419 601.594, 418.547 601, 417.993 601 C 417.440 601, 412.557 600.335, 407.143 599.522 C 372.401 594.303, 274.053 590.412, 207.500 591.622" stroke="none" fill="#d3d3d3" fill-rule="evenodd"/><path d="M 665.500 0.645 C 635.190 4.690, 613.085 14.743, 595.682 32.395 C 590.954 37.192, 588.435 41.033, 583.928 50.324 C 571.403 76.140, 566.233 100.761, 562.997 150 C 561.774 168.612, 561.881 257.596, 563.147 274.500 C 565.492 305.823, 572.593 340.358, 581.345 363 C 589.465 384.008, 590.523 385.857, 599.386 394.517 C 608.738 403.655, 615.201 408.200, 627.839 414.526 C 638.996 420.112, 641.531 420.772, 672.500 426.161 C 675.899 426.752, 683.701 426.950, 690.500 426.618 C 703.231 425.996, 735.290 422.791, 746.168 421.053 C 749.747 420.481, 755.110 419.751, 758.087 419.430 C 761.064 419.110, 764.461 418.230, 765.635 417.476 C 770.466 414.373, 776.984 391.580, 776.996 377.750 C 777 373.355, 776.814 373, 774.512 373 C 773.143 373, 768.192 374.586, 763.510 376.524 C 745.527 383.968, 722.983 387.835, 704.844 386.586 C 699.533 386.221, 694.133 385.709, 692.844 385.450 C 691.555 385.191, 689.150 384.739, 687.500 384.444 C 680.490 383.193, 669.984 379.534, 662.945 375.890 C 655.998 372.295, 655.051 371.416, 651.195 364.977 C 648.888 361.125, 647 357.767, 647 357.514 C 647 357.261, 645.916 354.680, 644.592 351.777 C 638.690 338.840, 634.509 314.715, 633.540 288 C 633.231 279.475, 632.763 266.875, 632.500 260 C 630.276 201.823, 629.804 180.530, 630.319 161.500 C 631.527 116.874, 636.788 78.897, 643.236 68.257 C 650.916 55.586, 660.910 47.279, 674 42.686 C 681.158 40.175, 682.275 40.070, 698.500 40.379 C 711.960 40.636, 717.478 41.181, 725 42.993 C 734.873 45.373, 736.214 46.002, 744.500 52.151 C 750.673 56.732, 759.621 60.977, 763.131 60.990 C 766.042 61.001, 767.829 58.978, 776.790 45.526 C 785.383 32.628, 791.436 19.422, 791.471 13.500 L 791.500 8.500 776 6.793 C 767.475 5.853, 752.175 4.109, 742 2.915 C 728.184 1.295, 716.537 0.682, 696 0.495 C 680.875 0.357, 667.150 0.425, 665.500 0.645 M 1135.402 8.910 C 1109.184 9.392, 1102.978 9.771, 1101.525 10.978 C 1099.953 12.283, 1099.823 13.579, 1100.407 22.061 C 1100.771 27.344, 1101.938 35.307, 1103.001 39.756 C 1104.963 47.971, 1105.336 49.761, 1106.385 56 C 1108.105 66.235, 1110.500 199.773, 1110.500 285.500 C 1110.500 352.088, 1109.799 384.594, 1107.895 406.261 C 1106.648 420.455, 1106.904 421.401, 1112.358 422.733 C 1117.042 423.876, 1252.610 422.469, 1258 421.221 C 1260.475 420.647, 1264.264 419.904, 1266.421 419.568 C 1274.185 418.358, 1281.699 415.728, 1293 410.265 C 1303.556 405.163, 1305.280 403.914, 1314 395.062 C 1329.185 379.647, 1334.916 368.390, 1341.524 341 C 1344.429 328.962, 1346.490 317.581, 1348.406 303 C 1352.185 274.245, 1352.497 266.873, 1352.494 206.500 L 1352.490 146.500 1349.741 129 C 1343.370 88.435, 1340.034 74.944, 1332.855 60.705 C 1318.253 31.744, 1296.281 17.235, 1257 10.615 C 1246.774 8.892, 1184.192 8.014, 1135.402 8.910 M 1554 9.739 C 1552.625 9.979, 1550.447 11.148, 1549.159 12.338 C 1546.445 14.845, 1546.373 9.300, 1550.234 95 C 1553.172 160.200, 1553.442 319.328, 1550.692 364.500 C 1549.754 379.900, 1548.698 398.191, 1548.345 405.147 L 1547.702 417.795 1551.101 419.647 C 1554.267 421.373, 1558.164 421.522, 1608 421.824 C 1637.425 422.002, 1671.542 421.839, 1683.815 421.461 L 1706.129 420.773 1708.546 418.166 C 1715.002 411.204, 1721.872 383.039, 1717.522 381.370 C 1715.853 380.730, 1706.677 381.941, 1690.500 384.936 C 1671.092 388.531, 1628.002 387.409, 1620.500 383.115 C 1618.607 382.032, 1617.032 379.984, 1616.233 377.568 C 1613.525 369.383, 1612.539 333.141, 1612.531 241.500 C 1612.523 145.410, 1613.435 114.186, 1618.022 53.500 C 1620.765 17.198, 1620.810 15.384, 1619 13.603 C 1617.909 12.530, 1613.140 11.841, 1601.500 11.077 C 1582.518 9.830, 1557.514 9.126, 1554 9.739 M 1844.500 9.729 C 1836.923 10.352, 1830.115 12.121, 1827.561 14.131 C 1825.186 15.999, 1825 16.740, 1824.998 24.323 C 1824.995 41.318, 1822.926 65.651, 1820.520 77 C 1817.479 91.341, 1805.568 147.579, 1804 155 C 1803.360 158.025, 1801.726 165.675, 1800.368 172 C 1799.010 178.325, 1797.261 186.650, 1796.482 190.500 C 1795.703 194.350, 1793.452 204.925, 1791.481 214 C 1789.509 223.075, 1787.492 232.525, 1786.999 235 C 1786.505 237.475, 1784.706 246.025, 1783.002 254 C 1781.297 261.975, 1779.061 272.550, 1778.033 277.500 C 1761.609 356.573, 1758.995 367.810, 1753.103 384.669 C 1747.244 401.435, 1743.657 415.882, 1744.887 417.762 C 1745.831 419.207, 1749.139 420.673, 1753 421.357 C 1757.671 422.186, 1781.294 420.448, 1783.832 419.090 C 1787.003 417.393, 1788.121 412.094, 1787.895 399.828 C 1787.712 389.873, 1788.259 385.592, 1792.404 364.500 C 1799.375 329.033, 1804.433 304.024, 1808.079 287 C 1809.198 281.775, 1811.008 273.225, 1812.102 268 C 1813.195 262.775, 1814.962 254.675, 1816.027 250 C 1817.093 245.325, 1819.792 233.175, 1822.026 223 C 1828.763 192.317, 1834.899 165.842, 1843.117 132 C 1852.471 93.476, 1853.222 90.547, 1853.956 89.726 C 1856.348 87.049, 1860.829 100.523, 1871.597 142.779 C 1878.835 171.179, 1902 268.905, 1902 271.036 C 1902 273.590, 1898.854 275.850, 1894.474 276.442 C 1892.288 276.737, 1877.364 277.169, 1861.309 277.401 L 1832.119 277.822 1827.309 281.099 C 1815.541 289.118, 1807.063 298.477, 1805.445 305.235 C 1804.884 307.582, 1805.196 308.138, 1807.645 309.151 C 1809.215 309.801, 1815 310.344, 1820.500 310.358 C 1830.354 310.384, 1833.739 309.967, 1857.500 305.806 C 1864.535 304.574, 1874.258 303.662, 1881 303.602 C 1895.308 303.475, 1902.110 305.404, 1908.540 311.413 C 1912.509 315.122, 1913.201 316.517, 1916.033 326.500 C 1924.102 354.956, 1928.884 375.896, 1929.963 387.500 C 1931.746 406.691, 1933.047 415.414, 1934.316 416.691 C 1936.585 418.975, 1952.834 420.270, 1971.987 419.695 C 1990.880 419.127, 1997.596 418.171, 1999.190 415.822 C 2000.753 413.517, 1999.358 406.249, 1996.146 399.975 C 1994.323 396.413, 1991.403 387.221, 1989.072 377.705 C 1986.888 368.792, 1981.679 347.550, 1977.496 330.500 C 1963.412 273.093, 1948.470 210.585, 1942.478 184 C 1930 128.640, 1926.127 110.642, 1917.432 67.619 C 1912.591 43.661, 1912 39.387, 1912 28.321 C 1912 16.179, 1911.942 15.850, 1909.354 13.452 C 1907.017 11.286, 1905.762 10.991, 1898.604 10.923 C 1894.147 10.881, 1889.731 10.699, 1888.792 10.518 C 1886.187 10.017, 1849.047 9.355, 1844.500 9.729 M 1427 10.637 C 1420.242 11.624, 1413.164 13.360, 1410.119 14.778 L 1406.738 16.352 1407.425 27.219 C 1407.803 33.196, 1408.722 41.330, 1409.466 45.293 C 1410.210 49.257, 1410.823 57.675, 1410.829 64 C 1410.834 70.325, 1411.619 97.550, 1412.573 124.500 C 1414.908 190.465, 1414.943 288.696, 1412.649 337 C 1411.721 356.525, 1410.758 376.775, 1410.509 382 C 1410.260 387.225, 1409.518 397.695, 1408.861 405.267 C 1407.718 418.426, 1407.750 419.098, 1409.583 420.458 C 1413.081 423.054, 1419.244 423.483, 1448.500 423.170 C 1477.124 422.864, 1477.530 422.830, 1479.823 420.584 L 1482.147 418.308 1480.085 396.404 C 1477.981 374.052, 1476.048 346.127, 1473.827 306 C 1473.026 291.543, 1472.597 255.617, 1472.626 205.500 C 1472.668 131.595, 1473.369 104.563, 1476.594 52.500 C 1478.403 23.291, 1478.557 18.326, 1477.714 16.378 C 1475.990 12.395, 1462.312 9.979, 1442.500 10.156 C 1435.350 10.220, 1428.375 10.437, 1427 10.637 M 903.943 14.054 C 896.782 14.486, 889.849 15.454, 887.808 16.307 C 883.589 18.070, 883.496 18.550, 883.127 40.500 C 882.904 53.733, 879.842 76.998, 875.492 98.500 C 874.713 102.350, 873.849 106.818, 873.572 108.428 C 873.295 110.039, 872.596 113.639, 872.020 116.428 C 871.443 119.218, 870.799 122.400, 870.587 123.500 C 869.874 127.203, 859.900 171.428, 858.070 179 C 856.377 186.005, 854.539 194.181, 849.978 215 C 848.390 222.249, 844.024 243.828, 842.493 252 C 832.061 307.652, 813.142 391.076, 808.474 402 C 806.539 406.529, 805.554 410.829, 805.224 416.181 L 804.751 423.863 808.443 424.555 C 810.474 424.936, 817.618 424.729, 824.318 424.094 C 841.944 422.423, 843.999 422.009, 844.009 420.122 C 844.018 418.313, 845.739 398.253, 846.550 390.500 C 847.297 383.364, 850.483 364.721, 855.011 341 C 857.163 329.725, 859.294 318.475, 859.748 316 L 860.572 311.500 914.240 311.701 C 960.425 311.873, 968.325 312.117, 970.897 313.447 C 973.532 314.809, 974.293 316.327, 977.311 326.246 C 985.825 354.223, 991.076 377.550, 995.068 405.125 C 996.212 413.031, 997.703 420.072, 998.381 420.771 C 1000.475 422.930, 1010.749 423.991, 1029 423.931 C 1049.361 423.865, 1062.907 422.769, 1063.935 421.105 C 1064.939 419.481, 1063.362 408.796, 1061.448 404.252 C 1060.037 400.900, 1029.875 282.947, 1026.388 267.143 C 1025.617 263.647, 1024.788 260.465, 1024.545 260.073 C 1024.303 259.681, 1023.896 258.266, 1023.641 256.930 C 1023.386 255.593, 1021.775 248.875, 1020.061 242 C 1016.118 226.181, 1018.742 236.624, 997.579 152.500 C 975.072 63.031, 974.282 59.173, 972.406 29.680 C 971.977 22.940, 971.224 18.367, 970.409 17.552 C 969.028 16.171, 964.296 15.533, 944 13.994 C 930.044 12.935, 922.309 12.947, 903.943 14.054 M 211.302 24.746 C 216.693 24.926, 225.243 24.925, 230.302 24.744 C 235.361 24.563, 230.950 24.416, 220.500 24.417 C 210.050 24.418, 205.911 24.566, 211.302 24.746 M 1184.500 53.794 C 1180.198 55.262, 1179.179 56.146, 1177.204 60.126 C 1175.912 62.727, 1174.600 67.761, 1174.205 71.626 C 1173.086 82.578, 1173.459 226.242, 1174.873 328.689 C 1175.671 386.494, 1175.023 382.391, 1183.851 385.538 C 1190.175 387.792, 1210.002 388.554, 1224.052 387.083 C 1253.658 383.983, 1267.724 371.897, 1275.356 343 C 1278.284 331.912, 1281.674 308.780, 1282.463 294.500 C 1284.323 260.812, 1284.986 216.929, 1284.029 190.784 C 1282.603 151.824, 1282.164 144.849, 1279.990 126.500 C 1278.947 117.700, 1277.838 108.300, 1277.527 105.610 C 1276.210 94.243, 1267.396 73.881, 1260.447 66.152 C 1255.485 60.633, 1247.106 55.911, 1237.955 53.475 C 1229.601 51.252, 1191.279 51.480, 1184.500 53.794 M 911.453 100.250 C 909.879 105.338, 908.512 109.950, 908.416 110.500 C 908.321 111.050, 907.324 114.650, 906.201 118.500 C 901.933 133.140, 897.172 154.700, 890.524 189.500 C 883.595 225.767, 880.074 241.691, 870.405 280.500 C 869.046 285.956, 865 304.045, 865 304.665 C 865 304.808, 869.973 299.554, 876.050 292.990 C 882.128 286.426, 887.524 280.794, 888.043 280.474 C 890.914 278.699, 908.052 277.247, 928.176 277.073 C 940.667 276.964, 952.787 276.687, 955.110 276.456 C 961.006 275.869, 963.741 273.003, 964.487 266.629 C 965.001 262.234, 963.510 255.272, 954.075 218 C 938.100 154.896, 934.070 140.429, 923.368 107.750 C 916.603 87.096, 915.699 86.527, 911.453 100.250 M 15.413 227.500 C 15.414 237.400, 15.564 241.315, 15.746 236.199 C 15.928 231.084, 15.927 222.984, 15.744 218.199 C 15.561 213.415, 15.412 217.600, 15.413 227.500 M 429.397 228 C 429.397 235.975, 429.553 239.238, 429.743 235.250 C 429.932 231.262, 429.932 224.738, 429.743 220.750 C 429.553 216.762, 429.397 220.025, 429.397 228 M 368.982 372.750 L 358.500 383.500 369.250 373.018 C 379.235 363.282, 380.454 362, 379.732 362 C 379.585 362, 374.747 366.837, 368.982 372.750 M 215.250 433.742 C 218.963 433.934, 225.037 433.934, 228.750 433.742 C 232.463 433.549, 229.425 433.392, 222 433.392 C 214.575 433.392, 211.537 433.549, 215.250 433.742 M 1269 473.258 C 1268.725 473.537, 1266.475 474.018, 1264 474.327 C 1252.091 475.814, 1240.187 483.708, 1236.842 492.334 C 1231.271 506.701, 1229.216 525.254, 1229.734 556.500 C 1230.007 572.928, 1230.529 578.911, 1232.661 590 C 1235.729 605.956, 1238.290 612.292, 1243.532 616.894 C 1250.257 622.798, 1268.924 629.382, 1276.160 628.401 C 1284.695 627.244, 1293.961 625.796, 1298.762 624.869 C 1304.794 623.705, 1306.589 621.360, 1307.926 612.904 C 1308.653 608.308, 1308.566 608, 1306.545 608 C 1305.359 608, 1301.494 608.977, 1297.956 610.172 C 1292.029 612.174, 1290.828 612.256, 1282.650 611.224 C 1272.900 609.993, 1265.692 607.007, 1262.799 603 C 1258.943 597.661, 1257.872 588.095, 1257.310 554 C 1256.738 519.208, 1257.665 508.068, 1261.936 498.411 C 1264.811 491.913, 1267.707 490.536, 1278.998 490.298 C 1287.468 490.119, 1289.215 490.395, 1293.928 492.651 C 1302.584 496.793, 1303.239 496.633, 1308.418 489.106 C 1310.918 485.472, 1313.240 481.099, 1313.579 479.386 L 1314.196 476.272 1306.348 475.095 C 1297.808 473.815, 1269.809 472.437, 1269 473.258 M 1946.010 474.181 C 1941.159 475.572, 1933.519 481.402, 1928.915 487.226 C 1923.434 494.161, 1921.044 502.712, 1920.312 518.009 C 1919.756 529.638, 1919.872 530.828, 1921.950 534.902 C 1927.071 544.940, 1936.539 552.604, 1957.104 563.358 C 1967.943 569.026, 1969.867 570.421, 1972.421 574.465 C 1976.201 580.447, 1976.763 587.209, 1974.213 596 C 1972.514 601.858, 1971.876 602.780, 1967.757 605.336 C 1959.650 610.367, 1948.031 610.018, 1935.126 604.357 C 1932.170 603.061, 1929.110 602, 1928.326 602 C 1926.736 602, 1920.518 614.678, 1919.626 619.738 C 1919.138 622.503, 1919.380 623.046, 1921.277 623.460 C 1929.699 625.297, 1958.284 625.571, 1968.876 623.917 C 1984.161 621.530, 1992.342 614.334, 1997.036 599.145 C 1999.206 592.123, 1999.739 576.201, 1998.013 569.986 C 1994.940 558.926, 1985.663 549.743, 1968.709 540.979 C 1956.703 534.773, 1953.810 532.913, 1948.665 528.093 C 1941.376 521.263, 1939.710 515.114, 1942.113 503.910 C 1943.738 496.330, 1949.529 490.772, 1957.461 489.179 C 1964.317 487.803, 1977.848 487.620, 1981.185 488.860 C 1982.458 489.333, 1985.123 490.016, 1987.107 490.379 C 1990.661 491.027, 1990.740 490.969, 1992.495 486.374 C 1993.474 483.809, 1994.623 480.171, 1995.047 478.290 C 1995.708 475.359, 1995.522 474.759, 1993.749 474.103 C 1990.656 472.959, 1950.040 473.025, 1946.010 474.181 M 1613.493 475.056 L 1610.486 475.931 1610.205 523.716 C 1610.051 549.997, 1610.221 583.313, 1610.585 597.750 L 1611.245 624 1622.432 624 C 1629.836 624, 1634.175 623.577, 1635.264 622.750 C 1636.760 621.615, 1636.945 614.944, 1637.283 550 C 1637.488 510.675, 1638.010 477.488, 1638.444 476.250 L 1639.233 474 1627.867 474.090 C 1621.615 474.140, 1615.147 474.574, 1613.493 475.056 M 1686.500 475.408 C 1677.798 477.444, 1672.141 480.184, 1666.716 484.990 C 1659.551 491.340, 1657.597 496.037, 1653.934 515.721 C 1651.510 528.748, 1649.594 563.375, 1650.488 578 C 1651.305 591.357, 1654.253 605.050, 1657.508 610.604 C 1661.246 616.983, 1668.657 621.946, 1680.452 625.968 C 1684.839 627.465, 1687.333 627.575, 1699.500 626.808 C 1716.038 625.767, 1720.460 624.754, 1722.577 621.523 C 1724.953 617.897, 1727.165 608.720, 1725.858 607.912 C 1725.267 607.547, 1722.020 608.089, 1718.642 609.117 C 1711.805 611.196, 1695.999 611.683, 1689.943 610.001 C 1685.394 608.737, 1681.518 604.675, 1679.434 598.986 C 1676.970 592.258, 1675.346 549.150, 1676.836 530 C 1678.578 507.603, 1683.635 491.556, 1689.694 489.197 C 1699.305 485.454, 1707.357 486.107, 1717.976 491.488 C 1724.335 494.710, 1725.272 494.653, 1728.472 490.851 C 1731.324 487.462, 1737.399 476.065, 1736.717 475.384 C 1736.489 475.156, 1726.447 474.752, 1714.401 474.487 C 1697.708 474.119, 1691.073 474.338, 1686.500 475.408 M 1847.050 475.440 C 1845.854 476.881, 1846.095 527.249, 1847.637 597.897 L 1848.235 625.294 1873.868 624.573 C 1887.965 624.176, 1900.625 623.717, 1902 623.553 C 1903.375 623.389, 1905.053 623.198, 1905.730 623.128 C 1907.467 622.947, 1911 615.635, 1911 612.219 L 1911 609.359 1905.750 610.106 C 1897.936 611.219, 1883.020 611.133, 1878.762 609.951 C 1876.706 609.380, 1874.583 608.089, 1874.044 607.082 C 1873.505 606.075, 1872.540 595.857, 1871.899 584.375 C 1870.164 553.270, 1871.462 501.384, 1874.554 478.250 L 1875.123 474 1861.684 474 C 1851.208 474, 1847.981 474.317, 1847.050 475.440 M 1552.500 476.187 C 1535.450 476.662, 1520.474 477.275, 1519.219 477.552 C 1516.286 478.197, 1513.009 483.575, 1513.004 487.750 L 1513 491 1527.357 491 L 1541.714 491 1542.345 500.750 C 1542.693 506.113, 1543.278 536.038, 1543.647 567.250 C 1544.248 618.156, 1544.481 624.006, 1545.909 624.062 C 1553.613 624.362, 1565.004 624.116, 1565.787 623.631 C 1566.392 623.257, 1566.565 614.837, 1566.245 601.266 C 1565.963 589.295, 1566.071 559.766, 1566.486 535.647 L 1567.239 491.793 1578.370 492.452 L 1589.500 493.111 1593.750 485.181 C 1596.088 480.820, 1598 476.745, 1598 476.126 C 1598 474.882, 1599.516 474.880, 1552.500 476.187 M 1774.067 476.334 C 1772.179 477.048, 1770.315 478.278, 1769.926 479.067 C 1769.536 479.855, 1768.465 486.350, 1767.545 493.500 C 1765.065 512.778, 1760.091 536.117, 1749.536 578 C 1744.338 598.625, 1739.524 617.410, 1738.837 619.745 C 1737.871 623.032, 1737.859 624.259, 1738.782 625.182 C 1740.389 626.789, 1751.878 626.707, 1755.853 625.061 C 1759.358 623.609, 1759.604 622.919, 1760.450 612.178 C 1761.007 605.117, 1764.566 587.100, 1765.611 586.056 C 1765.891 585.775, 1773.672 585.373, 1782.901 585.161 L 1799.681 584.777 1802.376 595.138 C 1803.858 600.837, 1805.863 609.550, 1806.830 614.500 L 1808.589 623.500 1821.294 623.780 C 1830.551 623.984, 1834 623.739, 1834 622.879 C 1834 622.230, 1830.601 607.929, 1826.447 591.099 C 1822.293 574.270, 1818.038 556.900, 1816.991 552.500 C 1803.292 494.921, 1803.674 496.814, 1803.855 487.500 C 1803.950 482.550, 1803.602 477.846, 1803.080 477.048 C 1801.764 475.032, 1778.985 474.472, 1774.067 476.334 M 1078.754 476.972 C 1075.043 477.350, 1071.777 477.890, 1071.495 478.171 C 1071.214 478.453, 1070.513 482.467, 1069.938 487.092 C 1068.072 502.095, 1063.013 525.528, 1055.816 552.500 C 1053.614 560.750, 1051.671 568.175, 1051.498 569 C 1049.968 576.290, 1048.613 580.058, 1047.953 578.863 C 1047.540 578.113, 1046.263 573.225, 1045.116 568 C 1043.970 562.775, 1041.895 553.550, 1040.506 547.500 C 1037.604 534.858, 1032.601 510.414, 1031.040 501.252 C 1030.455 497.816, 1029.744 493.766, 1029.460 492.252 C 1029.176 490.738, 1028.662 487.250, 1028.319 484.500 C 1027.975 481.750, 1027.201 479.169, 1026.597 478.765 C 1025.149 477.796, 991.233 477.781, 990.725 478.750 C 990.509 479.163, 990.733 489.175, 991.223 501 C 991.713 512.825, 992.237 546.342, 992.388 575.482 L 992.663 628.464 1000.581 628.138 C 1004.937 627.959, 1008.643 627.675, 1008.817 627.506 C 1008.991 627.337, 1009.089 602.990, 1009.034 573.400 C 1008.980 543.811, 1009.138 519.805, 1009.387 520.054 C 1009.636 520.303, 1011.070 525.230, 1012.573 531.003 C 1015.376 541.769, 1016.253 545.062, 1022.291 567.500 C 1025.339 578.824, 1028.218 590.939, 1029.420 597.500 C 1029.622 598.600, 1030.497 603.325, 1031.365 608 C 1032.232 612.675, 1033.182 618.458, 1033.475 620.851 C 1033.767 623.244, 1034.257 625.607, 1034.563 626.101 C 1035.268 627.243, 1056.702 627.291, 1057.406 626.152 C 1057.832 625.463, 1059.969 615.145, 1064.582 591.500 C 1064.796 590.400, 1065.443 587.218, 1066.020 584.428 C 1066.596 581.639, 1067.301 578.039, 1067.587 576.428 C 1068.504 571.258, 1073.058 551.833, 1076.011 540.500 C 1083.131 513.171, 1083.385 512.538, 1084.376 519.643 C 1087.144 539.488, 1087.278 592.142, 1084.644 624.719 C 1084.514 626.329, 1085.739 626.527, 1097.419 626.781 C 1104.524 626.936, 1110.635 626.711, 1110.998 626.281 C 1111.362 625.852, 1111.078 618.075, 1110.367 609 C 1109.505 598, 1109.104 574, 1109.163 537 C 1109.212 506.475, 1109.195 480.790, 1109.126 479.922 C 1108.860 476.586, 1095.382 475.277, 1078.754 476.972 M 1326.500 483.593 C 1328.340 515.126, 1327.475 587.799, 1324.960 612.959 C 1324.222 620.345, 1324.172 624.572, 1324.816 625.216 C 1326.044 626.444, 1324.462 626.427, 1361.500 625.589 L 1392.500 624.886 1395.267 619.193 C 1398.620 612.293, 1398.541 609.442, 1395 609.639 C 1371.184 610.966, 1359.995 611.092, 1356.250 610.076 L 1352 608.923 1351.752 588.211 C 1351.432 561.507, 1351.618 554.982, 1352.732 553.868 C 1353.231 553.369, 1361.407 552.954, 1370.899 552.946 C 1387.666 552.933, 1388.226 552.865, 1390.505 550.586 C 1392.577 548.513, 1396 539.703, 1396 536.441 C 1396 535.563, 1390.284 535.134, 1374.506 534.829 C 1360.288 534.553, 1352.627 534.027, 1351.873 533.273 C 1350.638 532.038, 1351.218 496.510, 1352.543 492.225 L 1353.246 489.950 1375.701 490.225 L 1398.156 490.500 1400.647 484.619 C 1402.017 481.385, 1402.770 478.370, 1402.319 477.919 C 1401.868 477.468, 1384.521 476.781, 1363.769 476.393 L 1326.038 475.685 1326.500 483.593 M 1478.272 477.117 L 1474.044 478.109 1474.677 538.305 L 1475.310 598.500 1473.135 602.749 C 1467.544 613.672, 1452.178 616.366, 1442.822 608.064 L 1438.500 604.229 1438 541.365 L 1437.500 478.500 1425.520 478.780 C 1418.931 478.934, 1413.237 479.384, 1412.867 479.780 C 1412.135 480.563, 1414.596 605.006, 1415.419 608.846 C 1416.432 613.571, 1421.081 619.963, 1425.277 622.399 C 1434.468 627.736, 1449.278 629.649, 1466.924 627.779 C 1482.100 626.170, 1489.606 621.906, 1495.093 611.776 L 1498.493 605.500 1499.147 553 C 1499.507 524.125, 1500.106 495.711, 1500.478 489.857 C 1500.936 482.659, 1500.807 478.999, 1500.081 478.550 C 1497.257 476.805, 1483.464 475.898, 1478.272 477.117 M 563.388 484.750 C 565.224 503.916, 565.973 530.411, 565.986 576.628 C 565.998 619.076, 566.236 627.951, 567.392 628.910 C 568.318 629.679, 572.754 629.971, 580.642 629.783 L 592.500 629.500 592.500 592.750 C 592.500 560.751, 592.694 555.999, 594 555.997 C 598.310 555.989, 626.191 552.948, 630.500 552.015 C 641.040 549.735, 647.122 544.002, 650.573 533.097 C 652.816 526.008, 652.163 501.724, 649.562 495.488 C 646.228 487.495, 637.888 481.392, 627.201 479.124 C 623.959 478.437, 610.414 478, 592.322 478 L 562.742 478 563.388 484.750 M 664.473 479.043 C 663.711 480.277, 664.459 501.132, 666.157 526 C 666.879 536.575, 667.082 558.210, 666.722 586.250 L 666.161 630 679.374 630 L 692.587 630 692.169 596.424 C 691.902 574.958, 692.109 562.491, 692.744 561.856 C 693.905 560.695, 727.699 558.365, 728.710 559.377 C 729.086 559.753, 729.588 575.810, 729.824 595.059 L 730.254 630.058 742.877 629.779 L 755.500 629.500 755 607.500 C 754.108 568.270, 754.560 506.050, 755.830 493.073 C 756.571 485.503, 756.687 480.287, 756.126 479.726 C 754.991 478.591, 733.896 477.558, 730.296 478.462 L 727.680 479.118 728.330 509.506 C 728.836 533.178, 728.706 540.065, 727.740 540.667 C 725.923 541.799, 708.163 542.344, 699.505 541.533 L 692.028 540.832 691.764 509.666 L 691.500 478.500 678.327 478.222 C 669.539 478.036, 664.927 478.309, 664.473 479.043 M 803.375 478.985 C 801.611 479.697, 801.132 481.003, 800.556 486.672 C 800.175 490.427, 799.698 494.625, 799.497 496 C 798.456 503.113, 797.919 506.490, 796.079 517.500 C 794.976 524.100, 793.840 530.625, 793.556 532 C 793.271 533.375, 792.325 538.325, 791.452 543 C 790.579 547.675, 789.188 554.650, 788.361 558.500 C 787.534 562.350, 786.454 567.525, 785.961 570 C 785.468 572.475, 784.829 575.625, 784.542 577 C 784.255 578.375, 782.386 587.375, 780.389 597 C 778.392 606.625, 776.456 614.725, 776.087 615 C 775.488 615.446, 774.183 619.320, 772.487 625.689 C 771.596 629.034, 774.610 630, 785.934 630 C 791.470 630, 796 629.823, 796 629.606 C 796 626.090, 798.461 607.123, 799.508 602.575 C 800.276 599.234, 801.176 594.937, 801.506 593.026 C 801.837 591.115, 802.545 589.281, 803.079 588.951 C 804.069 588.339, 829.878 588.651, 833.481 589.318 C 835.014 589.602, 836.310 592.156, 839.203 600.593 C 841.261 606.592, 843.623 615.053, 844.452 619.397 C 845.281 623.740, 846.229 627.563, 846.559 627.892 C 847.656 628.989, 870.130 629.270, 871.199 628.201 C 871.894 627.506, 871.741 625.633, 870.719 622.340 C 869.894 619.678, 867.983 613, 866.473 607.500 C 864.964 602, 862.851 594.398, 861.779 590.607 C 860.707 586.815, 859.650 582.777, 859.429 581.632 C 859.209 580.488, 858.077 576.165, 856.915 572.025 C 855.752 567.886, 854.010 561.575, 853.044 558 C 852.078 554.425, 850.109 547.225, 848.669 542 C 847.228 536.775, 844.654 527.325, 842.948 521 C 841.242 514.675, 839.186 507.475, 838.380 505 C 837.573 502.525, 836.498 495.870, 835.992 490.212 C 835.485 484.553, 834.803 479.491, 834.476 478.962 C 833.740 477.771, 806.332 477.791, 803.375 478.985 M 1157.225 478.840 C 1156.473 479.317, 1155.355 484.341, 1154.503 491.075 C 1153.708 497.359, 1152.403 505.875, 1151.604 510 C 1150.805 514.125, 1149.856 519.525, 1149.496 522 C 1149.136 524.475, 1148.224 529.200, 1147.468 532.500 C 1146.713 535.800, 1145.829 540.075, 1145.504 542 C 1145.178 543.925, 1144.495 547.075, 1143.985 549 C 1143.475 550.925, 1142.160 556.775, 1141.062 562 C 1139.965 567.225, 1137.469 578.250, 1135.516 586.500 C 1133.563 594.750, 1131.758 602.625, 1131.505 604 C 1130.341 610.329, 1129.571 612.863, 1127.308 617.818 C 1125.972 620.743, 1125.019 624.118, 1125.189 625.318 C 1125.482 627.371, 1126.018 627.500, 1134.288 627.500 C 1144.485 627.500, 1144.962 627.134, 1144.985 619.285 C 1144.999 614.478, 1147.746 598.554, 1149.775 591.516 C 1150.504 588.986, 1151.309 588.406, 1155.068 587.700 C 1162.321 586.339, 1182.225 586.342, 1184.599 587.704 C 1185.897 588.449, 1187.354 591.119, 1188.418 594.704 C 1189.365 597.892, 1190.787 602.623, 1191.580 605.219 C 1192.372 607.814, 1193.306 613.316, 1193.655 617.445 C 1194.537 627.878, 1194.926 628.138, 1209.116 627.784 C 1219.983 627.513, 1220.514 627.400, 1220.813 625.300 C 1221.202 622.563, 1213.533 590.546, 1198.345 531.500 C 1193.843 513.999, 1190.595 497.393, 1189.447 486 C 1189.086 482.425, 1188.276 479.169, 1187.646 478.765 C 1186.082 477.763, 1158.817 477.830, 1157.225 478.840 M 886.358 479.691 C 885.560 480.257, 885.468 482.154, 886.053 486 C 889.221 506.831, 890.347 545.492, 888.964 586 C 887.726 622.297, 887.665 627.649, 888.478 628.965 C 889.185 630.109, 911.419 628.854, 912.301 627.621 C 912.741 627.004, 912.966 610.975, 912.801 592 L 912.500 557.500 916.555 557.202 C 921.042 556.872, 929.469 559.982, 931.688 562.785 C 936.376 568.709, 937.871 574.720, 941.493 602.210 C 943.033 613.891, 945.175 620.628, 949.103 626.144 L 951.178 629.058 963.839 628.779 C 976.247 628.506, 976.507 628.453, 976.830 626.168 C 977.012 624.885, 976.527 623.085, 975.752 622.168 C 971.409 617.026, 966.729 604.419, 965.480 594.500 C 964.114 583.647, 960.762 569.225, 958.391 564 C 957.019 560.975, 954.313 556.875, 952.380 554.888 L 948.864 551.276 957.182 547.209 C 962.997 544.365, 966.042 542.220, 967.300 540.081 C 978.679 520.741, 972.050 487.511, 955.500 480.930 C 951.989 479.533, 888.194 478.391, 886.358 479.691 M 916.250 493.706 L 914 494.139 914 517.594 L 914 541.050 926.750 540.412 C 938.651 539.816, 939.684 539.601, 942.266 537.184 C 946.191 533.510, 947.322 528.203, 946.727 516.254 C 946.325 508.206, 945.710 504.989, 943.858 501.260 C 941.730 496.976, 940.963 496.346, 936 494.817 C 930.871 493.237, 921.441 492.706, 916.250 493.706 M 593.717 495.649 C 592.512 497.598, 590.810 514.023, 590.779 524 C 590.756 531.487, 591.212 535.607, 592.366 538.356 L 593.986 542.211 605.743 541.834 C 619.283 541.401, 621.474 540.460, 625.684 533.276 C 628.196 528.989, 628.268 528.425, 627.742 517.009 C 626.855 497.756, 625.089 495.928, 606.698 495.219 C 599.757 494.952, 594.031 495.141, 593.717 495.649 M 1781.678 511.675 C 1781.401 512.679, 1780.619 516.650, 1779.940 520.500 C 1779.260 524.350, 1776.944 535.825, 1774.791 546 C 1772.639 556.175, 1770.612 566.257, 1770.287 568.403 L 1769.696 572.307 1780.006 571.597 C 1794.135 570.624, 1796 570.175, 1796 567.751 C 1796 562.668, 1784.079 511.874, 1782.487 510.175 C 1782.320 509.996, 1781.956 510.671, 1781.678 511.675 M 1167.266 523.570 C 1165.273 531.935, 1164.218 536.564, 1159.046 559.624 C 1156.111 572.712, 1155.841 572.001, 1163.750 571.993 C 1167.463 571.989, 1173.577 571.695, 1177.337 571.340 C 1185.081 570.609, 1184.646 571.931, 1181.231 559.500 C 1177.102 544.470, 1171.769 524.403, 1171.397 522.500 C 1169.786 514.245, 1169.468 514.328, 1167.266 523.570 M 814.171 522.157 C 813.584 525.646, 812.581 532.325, 811.942 537 C 811.303 541.675, 809.705 550.504, 808.390 556.620 C 804.774 573.444, 803.872 572, 818 572 C 829.038 572, 830 571.851, 830 570.137 C 830 566.053, 819.461 525.282, 816.952 519.657 L 815.238 515.815 814.171 522.157 M 197.250 591.745 C 202.062 591.928, 209.937 591.928, 214.750 591.745 C 219.563 591.561, 215.625 591.411, 206 591.411 C 196.375 591.411, 192.438 591.561, 197.250 591.745 M 266.750 591.745 C 271.837 591.927, 280.162 591.927, 285.250 591.745 C 290.337 591.564, 286.175 591.415, 276 591.415 C 265.825 591.415, 261.662 591.564, 266.750 591.745 M 124.250 615.739 C 127.412 615.937, 132.588 615.937, 135.750 615.739 C 138.912 615.541, 136.325 615.378, 130 615.378 C 123.675 615.378, 121.088 615.541, 124.250 615.739 M 286.287 616.740 C 289.469 616.939, 294.419 616.937, 297.287 616.736 C 300.154 616.535, 297.550 616.372, 291.500 616.374 C 285.450 616.376, 283.104 616.541, 286.287 616.740 M 221.199 617.744 C 225.984 617.927, 234.084 617.928, 239.199 617.746 C 244.315 617.564, 240.400 617.414, 230.500 617.413 C 220.600 617.412, 216.415 617.561, 221.199 617.744" stroke="none" fill="#2c3493" fill-rule="evenodd"/></svg>